<?xml version="1.0" encoding="UTF-8"?>
<svg width="32px" height="32px" viewBox="0 0 32 32" version="1.1" xmlns="http://www.w3.org/2000/svg" xmlns:xlink="http://www.w3.org/1999/xlink">
    <!-- Generator: Sketch 47.1 (45422) - http://www.bohemiancoding.com/sketch -->
    <title>32px/misc/contact</title>
    <desc>Created with Sketch.</desc>
    <defs>
        <path d="M14.6772431,18.9349908 C12.4790892,18.9349908 10.6910277,17.1469292 10.6910277,14.9487754 C10.6910277,12.7511138 12.4790892,10.9630523 14.6772431,10.9630523 C16.8753969,10.9630523 18.6634585,12.7511138 18.6634585,14.9487754 C18.6634585,17.1469292 16.8753969,18.9349908 14.6772431,18.9349908 M27.7153231,2.64088615 C28.6364308,3.24297846 29.1853538,4.25171692 29.1853538,5.34710154 C29.1853538,7.13270154 27.7325538,8.58550154 25.9469538,8.58550154 C24.2081231,8.58550154 22.7848615,7.20802462 22.7115077,5.48691692 C22.2497231,5.36334769 21.7746462,5.25405538 21.2936615,5.15313231 C21.2966154,5.17922462 21.3010462,5.20482462 21.3010462,5.23140923 L21.3010462,6.52716308 C23.0024615,6.84420923 24.2972308,8.32802462 24.3164308,10.1146092 L25.3010462,19.7436554 C25.3010462,21.77984 23.6449231,23.4359631 21.6087385,23.4359631 L7.82412308,23.4359631 C5.78843077,23.4359631 4.13181538,21.77984 4.13181538,19.7436554 L4.13575385,19.6683323 L5.11643077,10.1146092 C5.13612308,8.34968615 6.39987692,6.87670154 8.07027692,6.53651692 L8.07027692,5.23140923 C8.07027692,5.23042462 8.07076923,5.22894769 8.07076923,5.22747077 C7.63901538,5.32347077 7.21267692,5.42587077 6.79815385,5.54107077 C6.77550769,7.30648615 5.33156923,8.73614769 3.56024615,8.73614769 C1.77464615,8.73614769 0.321846154,7.28334769 0.321846154,5.49824 C0.321846154,4.86611692 0.504984615,4.25614769 0.852061538,3.72740923 C1.06966154,3.21294769 1.46646154,2.80580923 1.97846154,2.57393231 C5.54867692,0.96064 10.1236923,0.0720246154 14.8611692,0.0720246154 C19.3549538,0.0720246154 23.7468308,0.880393846 27.2269538,2.34845538 C27.3933538,2.41934769 27.5538462,2.51485538 27.7153231,2.64088615 Z M25.9469538,7.10857846 C26.9182769,7.10857846 27.7084308,6.31891692 27.7084308,5.34710154 C27.7084308,4.74599385 27.4017231,4.19165538 26.8882462,3.86476308 L26.8222769,3.81750154 C26.7568,3.76482462 26.7021538,3.73036308 26.6519385,3.70870154 C23.3505231,2.31596308 19.1629538,1.54894769 14.8611692,1.54894769 C10.3289846,1.54894769 5.97009231,2.39079385 2.58744615,3.91940923 C2.40726154,4.00113231 2.26941538,4.14833231 2.20049231,4.33294769 L2.11483077,4.49639385 C1.90806154,4.79374769 1.79876923,5.13984 1.79876923,5.49824 C1.79876923,6.46907077 2.58941538,7.25922462 3.56024615,7.25922462 C4.53156923,7.25922462 5.32172308,6.46907077 5.32172308,5.49824 C5.32172308,5.38254769 5.30990769,5.26439385 5.28627692,5.14722462 L5.15483077,4.49097846 L5.79483077,4.29553231 C8.5168,3.46500923 11.6518154,3.02587077 14.8611692,3.02587077 C17.9632,3.02587077 21.0184615,3.44236308 23.6966154,4.22956308 L24.3233231,4.41417846 L24.2164923,5.05860923 C24.1977846,5.17282462 24.1854769,5.26587077 24.1854769,5.34710154 C24.1854769,6.31891692 24.9756308,7.10857846 25.9469538,7.10857846 Z M19.8241231,5.23140923 C19.8241231,5.10931692 19.8571077,4.99608615 19.9092923,4.89467077 C18.2851692,4.63670154 16.5822769,4.50279385 14.8611692,4.50279385 C13.0184615,4.50279385 11.2062769,4.65590154 9.49058462,4.94685538 C9.52701538,5.03448615 9.5472,5.13048615 9.5472,5.23140923 L9.5472,6.46267077 L19.8241231,6.46267077 L19.8241231,5.23140923 Z M22.8395077,10.1544862 C22.8395077,8.93307077 21.8460308,7.93910154 20.6241231,7.93910154 L8.80873846,7.93910154 C7.58732308,7.93910154 6.59335385,8.93307077 6.59335385,10.1544862 L6.58990769,10.2303015 L5.60923077,19.7786092 C5.62843077,20.9842708 6.61403077,21.95904 7.82412308,21.95904 L21.6087385,21.95904 C22.8188308,21.95904 23.8049231,20.9842708 23.8241231,19.7786092 L22.8395077,10.1544862 Z M14.6772431,9.48612923 C17.6896738,9.48612923 20.1403815,11.9368369 20.1403815,14.9487754 C20.1403815,17.9612062 17.6896738,20.4119138 14.6772431,20.4119138 C11.6648123,20.4119138 9.21410462,17.9612062 9.21410462,14.9487754 C9.21410462,11.9368369 11.6648123,9.48612923 14.6772431,9.48612923 Z M14.6772431,13.4720492 C13.8619815,13.4720492 13.20032,14.1337108 13.20032,14.9489723 C13.20032,15.7647262 13.8619815,16.4258954 14.6772431,16.4258954 C15.4929969,16.4258954 16.1541662,15.7647262 16.1541662,14.9489723 C16.1541662,14.1337108 15.4929969,13.4720492 14.6772431,13.4720492 Z" id="path-1"></path>
    </defs>
    <g id="Symbols" stroke="none" stroke-width="1" fill="none" fill-rule="evenodd">
        <g id="32px/misc/contact">
            <g id="icons/misc/contact" transform="translate(1.000000, 4.000000)">
                <mask id="mask-2" fill="white">
                    <use xlink:href="#path-1"></use>
                </mask>
                <g id="icon"></g>
            </g>
        </g>
    </g>
</svg>