<?xml version="1.0" encoding="UTF-8"?><!DOCTYPE svg PUBLIC "-//W3C//DTD SVG 1.1//EN" "http://www.w3.org/Graphics/SVG/1.1/DTD/svg11.dtd"><svg xmlns="http://www.w3.org/2000/svg" xmlns:xlink="http://www.w3.org/1999/xlink"><defs><path d="M14.677 18.935a3.99 3.99 0 0 1-3.986-3.986 3.99 3.99 0 0 1 3.986-3.986 3.99 3.99 0 0 1 3.986 3.986 3.99 3.99 0 0 1-3.986 3.986M27.715 2.641a3.222 3.222 0 0 1 1.47 2.706 3.242 3.242 0 0 1-3.238 3.239 3.242 3.242 0 0 1-3.235-3.1 26.749 26.749 0 0 0-1.418-.333c.003.026.007.052.007.078v1.296a3.697 3.697 0 0 1 3.015 3.588l.985 9.629a3.696 3.696 0 0 1-3.692 3.692H7.824a3.696 3.696 0 0 1-3.692-3.692l.004-.076.98-9.553A3.7 3.7 0 0 1 8.07 6.537V5.23v-.004c-.431.096-.857.199-1.272.314A3.242 3.242 0 0 1 3.56 8.736 3.242 3.242 0 0 1 .322 5.498c0-.632.183-1.242.53-1.77a2.2 2.2 0 0 1 1.126-1.154C5.548.96 10.124.072 14.861.072c4.494 0 8.886.808 12.366 2.276.166.071.327.167.488.293zm-1.768 4.468c.971 0 1.761-.79 1.761-1.762 0-.601-.306-1.155-.82-1.482l-.066-.047a.754.754 0 0 0-.17-.11c-3.301-1.392-7.489-2.16-11.79-2.16-4.533 0-8.892.843-12.275 2.371a.734.734 0 0 0-.387.414l-.085.163a1.747 1.747 0 0 0-.316 1.002c0 .971.79 1.761 1.761 1.761a1.763 1.763 0 0 0 1.726-2.112l-.131-.656.64-.195c2.722-.831 5.857-1.27 9.066-1.27 3.102 0 6.157.416 8.836 1.204l.626.184-.107.645a1.85 1.85 0 0 0-.03.288c0 .972.79 1.762 1.761 1.762zM19.824 5.23c0-.122.033-.235.085-.336a32.33 32.33 0 0 0-5.048-.392 32.27 32.27 0 0 0-5.37.444.74.74 0 0 1 .056.284v1.232h10.277V5.23zm3.016 4.923a2.218 2.218 0 0 0-2.216-2.215H8.81a2.218 2.218 0 0 0-2.216 2.215l-.003.076-.98 9.549a2.218 2.218 0 0 0 2.214 2.18H21.61c1.21 0 2.196-.975 2.215-2.18l-.984-9.625zm-8.163-.668a5.47 5.47 0 0 1 5.463 5.463 5.47 5.47 0 0 1-5.463 5.463 5.47 5.47 0 0 1-5.463-5.463 5.47 5.47 0 0 1 5.463-5.463zm0 3.986a1.477 1.477 0 1 0 .001 2.955 1.477 1.477 0 0 0 0-2.955z" id="contact_fill_no_bounds-a"/><path d="M14.677 18.935a3.99 3.99 0 0 1-3.986-3.986 3.99 3.99 0 0 1 3.986-3.986 3.99 3.99 0 0 1 3.986 3.986 3.99 3.99 0 0 1-3.986 3.986M27.715 2.641a3.222 3.222 0 0 1 1.47 2.706 3.242 3.242 0 0 1-3.238 3.239 3.242 3.242 0 0 1-3.235-3.1 26.749 26.749 0 0 0-1.418-.333c.003.026.007.052.007.078v1.296a3.697 3.697 0 0 1 3.015 3.588l.985 9.629a3.696 3.696 0 0 1-3.692 3.692H7.824a3.696 3.696 0 0 1-3.692-3.692l.004-.076.98-9.553A3.7 3.7 0 0 1 8.07 6.537V5.23v-.004c-.431.096-.857.199-1.272.314A3.242 3.242 0 0 1 3.56 8.736 3.242 3.242 0 0 1 .322 5.498c0-.632.183-1.242.53-1.77a2.2 2.2 0 0 1 1.126-1.154C5.548.96 10.124.072 14.861.072c4.494 0 8.886.808 12.366 2.276.166.071.327.167.488.293zm-1.768 4.468c.971 0 1.761-.79 1.761-1.762 0-.601-.306-1.155-.82-1.482l-.066-.047a.754.754 0 0 0-.17-.11c-3.301-1.392-7.489-2.16-11.79-2.16-4.533 0-8.892.843-12.275 2.371a.734.734 0 0 0-.387.414l-.085.163a1.747 1.747 0 0 0-.316 1.002c0 .971.79 1.761 1.761 1.761a1.763 1.763 0 0 0 1.726-2.112l-.131-.656.64-.195c2.722-.831 5.857-1.27 9.066-1.27 3.102 0 6.157.416 8.836 1.204l.626.184-.107.645a1.85 1.85 0 0 0-.03.288c0 .972.79 1.762 1.761 1.762zM19.824 5.23c0-.122.033-.235.085-.336a32.33 32.33 0 0 0-5.048-.392 32.27 32.27 0 0 0-5.37.444.74.74 0 0 1 .056.284v1.232h10.277V5.23zm3.016 4.923a2.218 2.218 0 0 0-2.216-2.215H8.81a2.218 2.218 0 0 0-2.216 2.215l-.003.076-.98 9.549a2.218 2.218 0 0 0 2.214 2.18H21.61c1.21 0 2.196-.975 2.215-2.18l-.984-9.625zm-8.163-.668a5.47 5.47 0 0 1 5.463 5.463 5.47 5.47 0 0 1-5.463 5.463 5.47 5.47 0 0 1-5.463-5.463 5.47 5.47 0 0 1 5.463-5.463zm0 3.986a1.477 1.477 0 1 0 .001 2.955 1.477 1.477 0 0 0 0-2.955z" id="contact_fill_with_bounds-a"/><path d="M14.677 18.935a3.99 3.99 0 0 1-3.986-3.986 3.99 3.99 0 0 1 3.986-3.986 3.99 3.99 0 0 1 3.986 3.986 3.99 3.99 0 0 1-3.986 3.986M27.715 2.641a3.222 3.222 0 0 1 1.47 2.706 3.242 3.242 0 0 1-3.238 3.239 3.242 3.242 0 0 1-3.235-3.1 26.749 26.749 0 0 0-1.418-.333c.003.026.007.052.007.078v1.296a3.697 3.697 0 0 1 3.015 3.588l.985 9.629a3.696 3.696 0 0 1-3.692 3.692H7.824a3.696 3.696 0 0 1-3.692-3.692l.004-.076.98-9.553A3.7 3.7 0 0 1 8.07 6.537V5.23v-.004c-.431.096-.857.199-1.272.314A3.242 3.242 0 0 1 3.56 8.736 3.242 3.242 0 0 1 .322 5.498c0-.632.183-1.242.53-1.77a2.2 2.2 0 0 1 1.126-1.154C5.548.96 10.124.072 14.861.072c4.494 0 8.886.808 12.366 2.276.166.071.327.167.488.293zm-1.768 4.468c.971 0 1.761-.79 1.761-1.762 0-.601-.306-1.155-.82-1.482l-.066-.047a.754.754 0 0 0-.17-.11c-3.301-1.392-7.489-2.16-11.79-2.16-4.533 0-8.892.843-12.275 2.371a.734.734 0 0 0-.387.414l-.085.163a1.747 1.747 0 0 0-.316 1.002c0 .971.79 1.761 1.761 1.761a1.763 1.763 0 0 0 1.726-2.112l-.131-.656.64-.195c2.722-.831 5.857-1.27 9.066-1.27 3.102 0 6.157.416 8.836 1.204l.626.184-.107.645a1.85 1.85 0 0 0-.03.288c0 .972.79 1.762 1.761 1.762zM19.824 5.23c0-.122.033-.235.085-.336a32.33 32.33 0 0 0-5.048-.392 32.27 32.27 0 0 0-5.37.444.74.74 0 0 1 .056.284v1.232h10.277V5.23zm3.016 4.923a2.218 2.218 0 0 0-2.216-2.215H8.81a2.218 2.218 0 0 0-2.216 2.215l-.003.076-.98 9.549a2.218 2.218 0 0 0 2.214 2.18H21.61c1.21 0 2.196-.975 2.215-2.18l-.984-9.625zm-8.163-.668a5.47 5.47 0 0 1 5.463 5.463 5.47 5.47 0 0 1-5.463 5.463 5.47 5.47 0 0 1-5.463-5.463 5.47 5.47 0 0 1 5.463-5.463zm0 3.986a1.477 1.477 0 1 0 .001 2.955 1.477 1.477 0 0 0 0-2.955z" id="contact_no_fill_no_bounds-a"/><path d="M14.677 18.935a3.99 3.99 0 0 1-3.986-3.986 3.99 3.99 0 0 1 3.986-3.986 3.99 3.99 0 0 1 3.986 3.986 3.99 3.99 0 0 1-3.986 3.986M27.715 2.641a3.222 3.222 0 0 1 1.47 2.706 3.242 3.242 0 0 1-3.238 3.239 3.242 3.242 0 0 1-3.235-3.1 26.749 26.749 0 0 0-1.418-.333c.003.026.007.052.007.078v1.296a3.697 3.697 0 0 1 3.015 3.588l.985 9.629a3.696 3.696 0 0 1-3.692 3.692H7.824a3.696 3.696 0 0 1-3.692-3.692l.004-.076.98-9.553A3.7 3.7 0 0 1 8.07 6.537V5.23v-.004c-.431.096-.857.199-1.272.314A3.242 3.242 0 0 1 3.56 8.736 3.242 3.242 0 0 1 .322 5.498c0-.632.183-1.242.53-1.77a2.2 2.2 0 0 1 1.126-1.154C5.548.96 10.124.072 14.861.072c4.494 0 8.886.808 12.366 2.276.166.071.327.167.488.293zm-1.768 4.468c.971 0 1.761-.79 1.761-1.762 0-.601-.306-1.155-.82-1.482l-.066-.047a.754.754 0 0 0-.17-.11c-3.301-1.392-7.489-2.16-11.79-2.16-4.533 0-8.892.843-12.275 2.371a.734.734 0 0 0-.387.414l-.085.163a1.747 1.747 0 0 0-.316 1.002c0 .971.79 1.761 1.761 1.761a1.763 1.763 0 0 0 1.726-2.112l-.131-.656.64-.195c2.722-.831 5.857-1.27 9.066-1.27 3.102 0 6.157.416 8.836 1.204l.626.184-.107.645a1.85 1.85 0 0 0-.03.288c0 .972.79 1.762 1.761 1.762zM19.824 5.23c0-.122.033-.235.085-.336a32.33 32.33 0 0 0-5.048-.392 32.27 32.27 0 0 0-5.37.444.74.74 0 0 1 .056.284v1.232h10.277V5.23zm3.016 4.923a2.218 2.218 0 0 0-2.216-2.215H8.81a2.218 2.218 0 0 0-2.216 2.215l-.003.076-.98 9.549a2.218 2.218 0 0 0 2.214 2.18H21.61c1.21 0 2.196-.975 2.215-2.18l-.984-9.625zm-8.163-.668a5.47 5.47 0 0 1 5.463 5.463 5.47 5.47 0 0 1-5.463 5.463 5.47 5.47 0 0 1-5.463-5.463 5.47 5.47 0 0 1 5.463-5.463zm0 3.986a1.477 1.477 0 1 0 .001 2.955 1.477 1.477 0 0 0 0-2.955z" id="contact_no_fill_with_bounds-a"/></defs><symbol id="contact_fill_no_bounds" viewBox="0 0 32 32"><use fill="#676767" xlink:href="#contact_fill_no_bounds-a" transform="translate(1 4)" fill-rule="evenodd"/></symbol><symbol id="contact_fill_with_bounds" viewBox="0 0 32 32"><use fill="#676767" xlink:href="#contact_fill_with_bounds-a" transform="translate(1 4)" fill-rule="evenodd"/></symbol><symbol id="contact_no_fill_no_bounds" viewBox="0 0 32 32"/><symbol id="contact_no_fill_with_bounds" viewBox="0 0 32 32"/></svg>